<svg width="212" height="72" viewBox="0 0 212 72" fill="none" xmlns="http://www.w3.org/2000/svg">
<path d="M9.52415 56.8097V71H2.71662V38.2727H9.33239V50.7852H9.62003C10.174 49.3363 11.0689 48.2017 12.3047 47.3814C13.5405 46.5504 15.0906 46.1349 16.9549 46.1349C18.6594 46.1349 20.1456 46.5078 21.4134 47.2536C22.6918 47.9886 23.6825 49.0486 24.3857 50.4336C25.0994 51.8079 25.451 53.4538 25.4403 55.3714V71H18.6328V56.5859C18.6435 55.0732 18.2599 53.896 17.4822 53.0543C16.7152 52.2127 15.6392 51.7919 14.2543 51.7919C13.3274 51.7919 12.5071 51.989 11.7933 52.3832C11.0902 52.7773 10.5362 53.3526 10.1314 54.109C9.73722 54.8548 9.5348 55.755 9.52415 56.8097ZM37.797 71.4634C36.2309 71.4634 34.8353 71.1918 33.6102 70.6484C32.385 70.0945 31.4156 69.2795 30.7018 68.2035C29.9987 67.1168 29.6471 65.7638 29.6471 64.1445C29.6471 62.7809 29.8975 61.6357 30.3982 60.7088C30.8989 59.782 31.5807 59.0362 32.4436 58.4716C33.3066 57.907 34.2867 57.4808 35.384 57.1932C36.4919 56.9055 37.6531 56.7031 38.8676 56.5859C40.2952 56.4368 41.4458 56.2983 42.3193 56.1705C43.1929 56.032 43.8268 55.8295 44.221 55.5632C44.6151 55.2969 44.8122 54.9027 44.8122 54.3807V54.2848C44.8122 53.2727 44.4926 52.4897 43.8534 51.9357C43.2249 51.3817 42.33 51.1048 41.1688 51.1048C39.9436 51.1048 38.9688 51.3764 38.2444 51.9197C37.52 52.4524 37.0406 53.1236 36.8062 53.9332L30.51 53.4219C30.8296 51.9304 31.4582 50.6413 32.3957 49.5547C33.3332 48.4574 34.5423 47.6158 36.0232 47.0298C37.5146 46.4332 39.2405 46.1349 41.2007 46.1349C42.5644 46.1349 43.8694 46.2947 45.1159 46.6143C46.373 46.9339 47.4862 47.4293 48.4557 48.1005C49.4358 48.7717 50.2082 49.6346 50.7728 50.6893C51.3374 51.7333 51.6198 52.9851 51.6198 54.4446V71H45.1638V67.5962H44.972C44.5779 68.3633 44.0505 69.0398 43.39 69.6257C42.7295 70.201 41.9358 70.6538 41.009 70.984C40.0821 71.3036 39.0115 71.4634 37.797 71.4634ZM39.7465 66.7653C40.748 66.7653 41.6322 66.5682 42.3992 66.174C43.1663 65.7692 43.7682 65.2259 44.205 64.544C44.6418 63.8622 44.8602 63.0898 44.8602 62.2269V59.6222C44.6471 59.7607 44.3541 59.8885 43.9813 60.0057C43.6191 60.1122 43.2089 60.2134 42.7508 60.3093C42.2927 60.3945 41.8346 60.4744 41.3765 60.549C40.9184 60.6129 40.5029 60.6715 40.1301 60.7248C39.3311 60.842 38.6333 61.0284 38.0367 61.2841C37.4401 61.5398 36.9767 61.886 36.6464 62.3228C36.3161 62.7489 36.151 63.2816 36.151 63.9208C36.151 64.8477 36.4866 65.5561 37.1578 66.0462C37.8396 66.5256 38.7025 66.7653 39.7465 66.7653ZM39.0115 43.2905L42.3992 36.0195H48.6954L43.8215 43.2905H39.0115ZM57.029 71V38.2727H63.8366V50.5774H64.0443C64.3426 49.9169 64.7741 49.2457 65.3387 48.5639C65.914 47.8714 66.6597 47.2962 67.5759 46.8381C68.5028 46.3693 69.6533 46.1349 71.0276 46.1349C72.8174 46.1349 74.4687 46.6037 75.9814 47.5412C77.4942 48.468 78.7034 49.869 79.6089 51.744C80.5145 53.6083 80.9672 55.9467 80.9672 58.7592C80.9672 61.4972 80.5251 63.8089 79.6409 65.6946C78.7673 67.5696 77.5741 68.9918 76.0613 69.9613C74.5592 70.9201 72.876 71.3995 71.0116 71.3995C69.6906 71.3995 68.5667 71.1811 67.6398 70.7443C66.7236 70.3075 65.9726 69.7589 65.3866 69.0984C64.8007 68.4272 64.3532 67.7507 64.0443 67.0689H63.7407V71H57.029ZM63.6927 58.7273C63.6927 60.1868 63.8952 61.4599 64.3 62.5465C64.7048 63.6332 65.2907 64.4801 66.0578 65.0874C66.8248 65.6839 67.757 65.9822 68.8543 65.9822C69.9623 65.9822 70.8998 65.6786 71.6668 65.0714C72.4339 64.4535 73.0145 63.6012 73.4086 62.5146C73.8135 61.4173 74.0159 60.1548 74.0159 58.7273C74.0159 57.3104 73.8188 56.0639 73.4246 54.9879C73.0305 53.9119 72.4498 53.0703 71.6828 52.4631C70.9157 51.8558 69.9729 51.5522 68.8543 51.5522C67.7464 51.5522 66.8089 51.8452 66.0418 52.4311C65.2854 53.017 64.7048 53.848 64.3 54.924C63.8952 56 63.6927 57.2678 63.6927 58.7273ZM85.5096 71V46.4545H92.3171V71H85.5096ZM88.9293 43.2905C87.9173 43.2905 87.049 42.9549 86.3246 42.2837C85.6108 41.6019 85.2539 40.7869 85.2539 39.8388C85.2539 38.9013 85.6108 38.0969 86.3246 37.4258C87.049 36.744 87.9173 36.4031 88.9293 36.4031C89.9414 36.4031 90.8043 36.744 91.5181 37.4258C92.2425 38.0969 92.6048 38.9013 92.6048 39.8388C92.6048 40.7869 92.2425 41.6019 91.5181 42.2837C90.8043 42.9549 89.9414 43.2905 88.9293 43.2905ZM110.826 46.4545V51.5682H96.0445V46.4545H110.826ZM99.4003 40.5739H106.208V63.4574C106.208 64.0859 106.304 64.576 106.495 64.9276C106.687 65.2685 106.954 65.5082 107.294 65.6467C107.646 65.7852 108.051 65.8544 108.509 65.8544C108.829 65.8544 109.148 65.8278 109.468 65.7745C109.787 65.7106 110.032 65.6626 110.203 65.6307L111.274 70.6964C110.933 70.8029 110.453 70.9254 109.835 71.0639C109.217 71.2131 108.466 71.3036 107.582 71.3356C105.941 71.3995 104.503 71.1811 103.267 70.6804C102.042 70.1797 101.089 69.402 100.407 68.3473C99.7252 67.2926 99.3896 65.9609 99.4003 64.3523V40.5739ZM126.087 71.4794C123.605 71.4794 121.458 70.9521 119.647 69.8974C117.847 68.832 116.456 67.3512 115.476 65.4549C114.496 63.5479 114.006 61.3374 114.006 58.8232C114.006 56.2876 114.496 54.0717 115.476 52.1754C116.456 50.2685 117.847 48.7876 119.647 47.733C121.458 46.6676 123.605 46.1349 126.087 46.1349C128.569 46.1349 130.711 46.6676 132.511 47.733C134.322 48.7876 135.718 50.2685 136.698 52.1754C137.678 54.0717 138.168 56.2876 138.168 58.8232C138.168 61.3374 137.678 63.5479 136.698 65.4549C135.718 67.3512 134.322 68.832 132.511 69.8974C130.711 70.9521 128.569 71.4794 126.087 71.4794ZM126.119 66.206C127.248 66.206 128.191 65.8864 128.948 65.2472C129.704 64.5973 130.274 63.7131 130.657 62.5945C131.052 61.4759 131.249 60.2028 131.249 58.7752C131.249 57.3477 131.052 56.0746 130.657 54.956C130.274 53.8374 129.704 52.9531 128.948 52.3033C128.191 51.6534 127.248 51.3285 126.119 51.3285C124.979 51.3285 124.02 51.6534 123.243 52.3033C122.476 52.9531 121.895 53.8374 121.501 54.956C121.117 56.0746 120.926 57.3477 120.926 58.7752C120.926 60.2028 121.117 61.4759 121.501 62.5945C121.895 63.7131 122.476 64.5973 123.243 65.2472C124.02 65.8864 124.979 66.206 126.119 66.206ZM163.017 53.4538L156.785 53.8374C156.678 53.3047 156.449 52.8253 156.098 52.3991C155.746 51.9624 155.283 51.6161 154.707 51.3604C154.143 51.0941 153.466 50.9609 152.678 50.9609C151.623 50.9609 150.734 51.1847 150.009 51.6321C149.285 52.0689 148.923 52.6548 148.923 53.3899C148.923 53.9759 149.157 54.4712 149.626 54.8761C150.095 55.2809 150.899 55.6058 152.039 55.8509L156.481 56.7457C158.868 57.2358 160.647 58.0241 161.819 59.1108C162.991 60.1974 163.576 61.625 163.576 63.3935C163.576 65.0021 163.102 66.4137 162.154 67.6282C161.217 68.8427 159.928 69.7908 158.287 70.4727C156.657 71.1438 154.777 71.4794 152.646 71.4794C149.397 71.4794 146.808 70.8029 144.88 69.4499C142.962 68.0863 141.838 66.2326 141.508 63.8888L148.204 63.5373C148.406 64.5281 148.896 65.2844 149.674 65.8065C150.451 66.3178 151.448 66.5735 152.662 66.5735C153.855 66.5735 154.814 66.3445 155.538 65.8864C156.274 65.4176 156.646 64.8157 156.657 64.0806C156.646 63.4627 156.385 62.9567 155.874 62.5625C155.363 62.1577 154.574 61.8487 153.509 61.6357L149.258 60.7887C146.861 60.3093 145.077 59.4783 143.905 58.2958C142.744 57.1133 142.163 55.6058 142.163 53.7734C142.163 52.1967 142.589 50.8384 143.441 49.6985C144.304 48.5586 145.514 47.6797 147.069 47.0618C148.635 46.4439 150.467 46.1349 152.566 46.1349C155.666 46.1349 158.106 46.7901 159.885 48.1005C161.675 49.4109 162.719 51.1953 163.017 53.4538Z" fill="white"/>
<rect x="5.5" y="0.5" width="15" height="15" rx="3.5" fill="#18181B" stroke="#27272A"/>
<rect x="25.5" y="0.5" width="15" height="15" rx="3.5" fill="#1E3A8A" stroke="#1E40AF"/>
<rect x="45.5" y="0.5" width="15" height="15" rx="3.5" fill="#1E40AF" stroke="#1D4ED8"/>
<rect x="65.5" y="0.5" width="15" height="15" rx="3.5" fill="#1D4ED8" stroke="#2563EB"/>
<rect x="85.5" y="0.5" width="15" height="15" rx="3.5" fill="#3B82F6" stroke="#60A5FA"/>
<rect x="105.5" y="0.5" width="15" height="15" rx="3.5" fill="#3B82F6" stroke="#60A5FA"/>
</svg>
